<svg version="1.0" xmlns="http://www.w3.org/2000/svg"
 width="1800.000000pt" height="1800.000000pt" viewBox="0 0 1800.000000 1800.000000"
 preserveAspectRatio="xMidYMid meet">

<g transform="translate(0.000000,1800.000000) scale(0.100000,-0.100000)"
fill="#000000" stroke="none">
<path d="M0 9000 l0 -9000 9000 0 9000 0 0 9000 0 9000 -9000 0 -9000 0 0
-9000z m11309 6789 c816 -81 1585 -437 2174 -1009 634 -614 1000 -1366 1104
-2262 16 -139 18 -277 18 -1548 0 -1271 -2 -1409 -18 -1548 -85 -735 -341
-1357 -791 -1922 -126 -158 -395 -427 -551 -552 -542 -431 -1144 -689 -1830
-784 -162 -22 -621 -30 -797 -14 -454 41 -907 169 -1306 369 -120 60 -292 158
-292 166 0 2 35 28 78 56 216 146 417 315 607 510 168 173 281 314 416 519 60
91 114 173 122 184 12 18 17 18 122 3 213 -31 382 -40 670 -34 154 3 334 13
401 21 936 118 1356 580 1434 1580 13 169 13 2710 0 2866 -30 361 -87 597
-199 825 -214 436 -577 660 -1221 752 -181 26 -837 26 -1020 0 -461 -66 -762
-197 -987 -430 -226 -234 -344 -515 -410 -978 -14 -99 -17 -305 -24 -1574 -4
-803 -9 -1473 -13 -1490 -3 -16 -10 -75 -16 -130 -36 -321 -132 -615 -267
-818 -62 -94 -188 -225 -284 -297 -92 -69 -242 -147 -364 -190 -84 -29 -267
-80 -291 -80 -14 0 -110 177 -177 330 -153 348 -243 681 -294 1090 -17 134
-18 254 -18 1560 0 1489 0 1497 46 1780 249 1538 1461 2756 2999 3014 136 23
298 42 435 50 93 6 426 -3 544 -15z m-8999 -11306 c0 -274 -5 -608 -10 -742
-6 -134 -9 -245 -8 -247 2 -1 44 28 93 66 298 224 594 307 906 254 324 -56
568 -242 724 -554 117 -233 169 -489 169 -830 0 -229 -14 -350 -64 -539 -100
-380 -329 -689 -630 -849 -161 -86 -345 -128 -520 -119 -141 7 -241 35 -385
107 -110 55 -169 95 -299 204 -26 21 -49 36 -53 33 -3 -4 -18 -66 -32 -139
l-27 -133 -257 -3 -257 -2 0 1995 0 1995 325 0 325 0 0 -497z m3182 -1200 l3
-1698 21 -45 c34 -74 54 -85 144 -85 l77 0 38 -220 c20 -121 39 -229 41 -240
4 -18 -3 -24 -49 -38 -87 -27 -213 -40 -332 -34 -189 11 -302 55 -402 160 -72
75 -116 157 -152 286 l-26 96 -3 1758 -2 1757 320 0 320 0 2 -1697z m5409 518
c505 -116 802 -516 849 -1148 10 -133 2 -347 -16 -418 l-6 -25 -879 0 -879 0
0 -27 c0 -39 34 -175 63 -255 38 -106 103 -206 186 -288 163 -160 362 -229
621 -217 165 8 284 41 452 125 l138 69 19 -31 c44 -75 191 -353 191 -363 0
-29 -264 -162 -430 -217 -195 -65 -291 -80 -510 -80 -163 0 -212 4 -297 22
-599 129 -981 569 -1054 1212 -17 148 -7 416 20 553 117 586 511 1000 1050
1102 107 20 366 13 482 -14z m3204 -6 c208 -61 354 -184 452 -380 20 -38 37
-72 39 -74 2 -2 53 44 114 103 299 289 541 399 843 383 439 -23 688 -274 773
-779 16 -92 18 -209 21 -1080 l4 -978 -325 0 -325 0 -4 922 c-3 887 -4 927
-24 1013 -37 163 -105 262 -213 314 -50 24 -66 26 -180 26 -114 0 -131 -3
-188 -27 -91 -39 -213 -124 -314 -218 l-88 -82 0 -974 0 -974 -325 0 -324 0
-3 943 c-4 935 -4 943 -26 1020 -61 218 -164 307 -365 315 -113 5 -162 -5
-263 -55 -86 -43 -175 -108 -278 -204 l-76 -71 0 -974 0 -974 -325 0 -325 0 0
1385 0 1385 268 0 267 0 22 -186 c12 -102 24 -188 27 -191 3 -3 52 38 109 92
174 162 318 255 481 310 111 37 167 44 321 40 114 -3 156 -8 230 -30z m-7103
-987 c3 -893 5 -957 22 -1018 40 -141 112 -236 214 -283 41 -19 65 -22 182
-22 100 0 149 4 190 17 119 37 256 142 373 286 l57 69 0 952 0 951 325 0 325
0 0 -1385 0 -1385 -265 0 c-146 0 -265 3 -265 8 0 22 -50 396 -54 399 -2 2
-50 -44 -107 -103 -131 -134 -234 -211 -363 -274 -158 -76 -247 -95 -446 -94
-137 1 -179 4 -244 22 -154 43 -279 121 -373 233 -61 74 -137 234 -168 354
-52 202 -55 270 -55 1287 l0 938 325 0 324 0 3 -952z"/>
<path d="M2855 3294 c-11 -2 -45 -9 -75 -15 -113 -23 -267 -111 -404 -232
l-66 -58 0 -653 0 -654 57 -43 c82 -62 227 -135 313 -158 111 -29 192 -34 287
-17 362 64 572 457 550 1026 -18 453 -155 704 -427 784 -55 16 -198 29 -235
20z"/>
<path d="M10472 3310 c-246 -65 -425 -275 -492 -578 -11 -48 -20 -93 -20 -99
0 -10 130 -13 615 -13 l615 0 0 78 c0 183 -72 384 -174 485 -129 129 -344 179
-544 127z"/>
</g>
</svg>
